<?xml version="1.0" encoding="iso-8859-1"?>
<!-- Uploaded to: SVG Repo, www.svgrepo.com, Generator: SVG Repo Mixer Tools -->
<svg height="800px" width="800px" version="1.1" id="Layer_1" xmlns="http://www.w3.org/2000/svg" xmlns:xlink="http://www.w3.org/1999/xlink" 
	 viewBox="0 0 512 512" xml:space="preserve">
<g transform="translate(1 1)">
	<path style="fill:#FCC309;" d="M374.467,75.8H135.533c-18.773,0-34.133-15.36-34.133-34.133V7.533h307.2v34.133
		C408.6,60.44,393.24,75.8,374.467,75.8"/>
	<path style="fill:#FD9808;" d="M348.867,75.8C367.64,75.8,383,60.44,383,41.667V7.533h25.6v34.133
		c0,18.773-15.36,34.133-34.133,34.133H348.867z"/>
	<path style="fill:#FFFFFF;" d="M161.133,75.8C142.36,75.8,127,60.44,127,41.667V7.533h-25.6v34.133
		c0,18.773,15.36,34.133,34.133,34.133H161.133z"/>
	<path style="fill:#FCC309;" d="M297.667,144.067h-85.333c-18.773,0-34.133-15.36-34.133-34.133V75.8h153.6v34.133
		C331.8,128.707,316.44,144.067,297.667,144.067"/>
	<path style="fill:#FD9808;" d="M297.667,144.067c18.773,0,34.133-15.36,34.133-34.133V75.8h-25.6v34.133
		c0,18.773-15.36,34.133-34.133,34.133H297.667z"/>
	<path style="fill:#FFFFFF;" d="M212.333,144.067c-18.773,0-34.133-15.36-34.133-34.133V75.8h25.6v34.133
		c0,18.773,15.36,34.133,34.133,34.133H212.333z"/>
	<path style="fill:#FFDD09;" d="M272.067,253.293V144.067h-34.133V280.6c0,9.387,7.68,17.067,17.067,17.067
		c47.787,0,87.04,39.253,85.333,87.893c-0.853,44.373-38.4,81.92-82.773,82.773c-43.52,0.853-80.213-29.867-87.04-71.68
		c-0.853-7.68-7.68-13.653-15.36-13.653h-1.707c-10.24,0-17.92,8.533-16.213,18.773c9.387,62.293,67.413,108.373,133.973,99.84
		c52.907-7.68,94.72-47.787,102.4-100.693c9.387-64-33.28-122.027-91.307-134.827C276.333,264.387,272.067,259.267,272.067,253.293"
		/>
	<path d="M374.467,84.333H135.533c-23.893,0-42.667-18.773-42.667-42.667V7.533C92.867,2.413,96.28-1,101.4-1h307.2
		c5.12,0,8.533,3.413,8.533,8.533v34.133C417.133,65.56,398.36,84.333,374.467,84.333z M109.933,16.067v25.6
		c0,14.507,11.093,25.6,25.6,25.6h238.933c14.507,0,25.6-11.093,25.6-25.6v-25.6H109.933z"/>
	<path d="M297.667,152.6h-85.333c-23.893,0-42.667-18.773-42.667-42.667V75.8c0-5.12,3.413-8.533,8.533-8.533h153.6
		c5.12,0,8.533,3.413,8.533,8.533v34.133C340.333,133.827,321.56,152.6,297.667,152.6z M186.733,84.333v25.6
		c0,14.507,11.093,25.6,25.6,25.6h85.333c14.507,0,25.6-11.093,25.6-25.6v-25.6H186.733z"/>
	<path d="M255,511c-62.293,0-116.053-44.373-126.293-108.373c-0.853-6.827,0.853-14.507,5.973-19.627
		c5.12-5.12,11.947-8.533,18.773-8.533h1.707c11.947,0,22.187,8.533,24.747,21.333c5.973,37.547,39.253,65.707,77.653,64
		c40.107-0.853,73.387-34.987,74.24-74.24c0.853-21.333-6.827-40.96-21.333-55.467C295.107,314.733,275.48,306.2,255,306.2
		c-14.507,0-25.6-11.093-25.6-25.6V144.067c0-5.12,3.413-8.533,8.533-8.533h34.133c5.12,0,8.533,3.413,8.533,8.533v109.227
		c0,1.707,0.853,3.413,2.56,3.413c64.853,14.507,107.52,78.507,98.133,145.067c-8.533,57.173-52.053,100.693-109.227,108.373
		C266.947,511,260.973,511,255,511z M153.453,391.533c-2.56,0-4.267,0.853-5.973,2.56s-1.707,3.413-1.707,5.973
		c9.387,59.733,64,100.693,124.587,93.013c49.493-6.827,87.893-44.373,94.72-93.867c8.533-57.173-29.013-112.64-85.333-125.44
		c-9.387-2.56-16.213-10.24-16.213-20.48V152.6h-17.067v128c0,5.12,3.413,8.533,8.533,8.533c25.6,0,49.493,10.24,67.413,28.16
		c17.92,18.773,27.307,42.667,26.453,68.267c-1.707,48.64-42.667,89.6-91.307,91.307c-46.08,1.707-87.893-32.427-95.573-78.507
		c0-4.267-3.413-6.827-6.827-6.827H153.453z"/>
	<path d="M152.6,50.2h-51.2c-5.12,0-8.533-3.413-8.533-8.533s3.413-8.533,8.533-8.533h51.2c5.12,0,8.533,3.413,8.533,8.533
		S157.72,50.2,152.6,50.2z"/>
	<path d="M331.8,118.467h-51.2c-5.12,0-8.533-3.413-8.533-8.533s3.413-8.533,8.533-8.533h51.2c5.12,0,8.533,3.413,8.533,8.533
		S336.92,118.467,331.8,118.467z"/>
</g>
</svg>